<?xml version="1.0" encoding="utf-8"?>
<svg viewBox="0 0 40 40" width="40px" height="40px" xmlns="http://www.w3.org/2000/svg">
    <rect style="fill: rgb(216, 216, 216); stroke: rgb(0, 0, 0);" width="119.266" height="119.266" rx="29.816" ry="29.816" y="156.261" x="145.642" transform="matrix(0.33538496494293213, 0, 0, 0.33538496494293213, -48.84613872835246, -52.4076126278581)"/>
    <g transform="matrix(1, 0, 0, 1, 3.552713678800501e-15, 0)">
        <path style="fill: rgb(216, 216, 216); stroke: rgb(0, 0, 0);" d="M 14.065 8.175 H 22.096 A 3 3 0 0 1 25.096 11.175 V 22.077 A 4 4 0 0 1 21.096 26.077 H 14.065 A 3 3 0 0 1 11.065 23.077 V 11.175 A 3 3 0 0 1 14.065 8.175 Z"/>
        <rect style="fill: rgb(216, 216, 216); stroke: rgb(0, 0, 0);" x="15.744" y="13.225" width="14.031" height="17.902" rx="3" ry="3"/>
    </g>
</svg>